[OOTR] Naruto Episodes 1-19


Edited to omit intros/outros and promote continuity.

Please SEED and enjoy! Leave a comment if you like.

Format                                   : MPEG-4
Format profile                           : Base Media / Version 2
Codec ID                                 : mp42
File size                                : 955 MiB
Duration                                 : 5h 53mn
Overall bit rate mode                    : Variable
Overall bit rate                         : 378 Kbps
Encoded date                             : UTC 2013-01-07 04:38:58
Tagged date                              : UTC 2013-01-07 04:38:58
┬⌐TIM                                     : 00:00:00:00
┬⌐TSC                                     : 24000
┬⌐TSZ                                     : 1001

Video
ID                                       : 1
Format                                   : AVC
Format/Info                              : Advanced Video Codec
Format profile                           : High@L3.0
Format settings, CABAC                   : Yes
Format settings, ReFrames                : 3 frames
Codec ID                                 : avc1
Codec ID/Info                            : Advanced Video Coding
Duration                                 : 5h 53mn
Source duration                          : 5h 53mn
Bit rate                                 : 248 Kbps
Width                                    : 640 pixels
Height                                   : 480 pixels
Display aspect ratio                     : 4:3
Frame rate mode                          : Variable
Frame rate                               : 23.976 fps
Minimum frame rate                       : 23.976 fps
Maximum frame rate                       : 24.000 fps
Standard                                 : NTSC
Color space                              : YUV
Chroma subsampling                       : 4:2:0
Bit depth                                : 8 bits
Scan type                                : Progressive
Bits/(Pixel*Frame)                       : 0.034
Stream size                              : 628 MiB (66%)
Source stream size                       : 628 MiB (66%)
Language                                 : English
Encoded date                             : UTC 2013-01-07 04:38:58
Tagged date                              : UTC 2013-01-07 04:38:58
mdhd_Duration                            : 21201848
Color primaries                          : BT.601 NTSC
Transfer characteristics                 : BT.601
Matrix coefficients                      : BT.601

Audio
ID                                       : 2
Format                                   : AAC
Format/Info                              : Advanced Audio Codec
Format profile                           : LC
Codec ID                                 : 40
Duration                                 : 5h 53mn
Source duration                          : 5h 53mn
Bit rate mode                            : Variable
Bit rate                                 : 125 Kbps
Maximum bit rate                         : 215 Kbps
Channel(s)                               : 2 channels
Channel positions                        : Front: L R
Sampling rate                            : 48.0 KHz
Compression mode                         : Lossy
Stream size                              : 317 MiB (33%)